<svg xmlns:inkscape="http://www.inkscape.org/namespaces/inkscape" xmlns:sodipodi="http://sodipodi.sourceforge.net/DTD/sodipodi-0.dtd" xmlns="http://www.w3.org/2000/svg" xmlns:svg="http://www.w3.org/2000/svg" xmlns:rdf="http://www.w3.org/1999/02/22-rdf-syntax-ns#" xmlns:cc="http://creativecommons.org/ns#" xmlns:dc="http://purl.org/dc/elements/1.1/" width="400" height="126" viewBox="0 0 105.83333 33.337502" version="1.1" id="svg8" inkscape:version="1.1.1 (3bf5ae0d25, 2021-09-20, custom)" sodipodi:docname="shri-web-sgs.svg" inkscape:export-filename="/home/sgs/Bilder/Librewish-sgs.png" inkscape:export-xdpi="96" inkscape:export-ydpi="96">
  <defs id="defs2" fill="#000000"/>
  <sodipodi:namedview id="base" pagecolor="#7b7b7b" bordercolor="#b53d3d" borderopacity="1" inkscape:pageopacity="0" inkscape:pageshadow="2" inkscape:zoom="2.8" inkscape:cx="245" inkscape:cy="80.178571" inkscape:document-units="px" inkscape:current-layer="layer1" showgrid="false" inkscape:window-width="3840" inkscape:window-height="2119" inkscape:window-x="0" inkscape:window-y="0" inkscape:window-maximized="0" units="px" inkscape:showpageshadow="false" borderlayer="true" inkscape:pagecheckerboard="1" fill="#000000"/>
  <metadata id="metadata5" fill="#000000">
    <rdf:RDF fill="#000000">
      <cc:Work rdf:about="" fill="#000000">
        <dc:format fill="#000000">image/svg+xml</dc:format>
        <dc:type rdf:resource="http://purl.org/dc/dcmitype/StillImage" fill="#000000"/>
      </cc:Work>
    </rdf:RDF>
  </metadata>
  <g inkscape:label="Ebene 1" inkscape:groupmode="layer" id="layer1" transform="translate(0,-191.16665)">
    <path id="path1196" style="fill:#804040;fill-opacity:1;stroke-width:0.142236" d="m 2.0634813e-8,191.24442 v 33.18197 H 2.3325775 V 191.24442 Z M 18.067838,191.24442 v 33.18197 h 2.332577 v -33.18197 z m 67.401784,0 v 33.18197 h 2.33258 v -33.18197 z m 18.031138,0 v 33.18197 h 2.33257 v -33.18197 z m -47.154677,0.0609 c -0.351521,9e-4 -0.71165,0.0264 -1.078718,0.0767 -1.439263,0.19707 -2.003906,0.4312 -2.791568,1.15723 -0.868941,0.80097 -1.117854,1.52537 -1.032261,3.00202 0.07889,1.36114 0.299044,1.9295 0.796263,2.0543 0.439624,0.11034 0.735869,-0.24471 0.735869,-0.8822 0,-0.24636 0.199782,-0.84714 0.44366,-1.33516 1.013165,-2.02753 2.960202,-2.49083 5.284419,-1.25757 1.01457,0.53833 2.570609,2.15474 3.03221,3.14974 0.376316,0.81116 0.721114,2.17498 0.584424,2.31167 -0.04873,0.0487 -3.275204,0.15075 -7.170087,0.22671 -3.894887,0.076 -7.136593,0.19018 -7.203999,0.25365 -0.122921,0.11578 0.546802,2.36942 0.779075,2.62153 0.06985,0.0757 1.028191,0.1167 2.205751,0.0943 l 2.082642,-0.0395 -0.07293,0.33217 c -0.0401,0.18271 -0.176593,0.71373 -0.303361,1.17999 -0.172091,0.63294 -0.230423,1.48864 -0.230423,3.37784 v 2.53049 h -0.3317 c -0.402259,0 -3.628134,-0.87422 -4.469109,-1.21112 -0.332478,-0.13321 -0.604398,-0.30462 -0.604398,-0.38094 0,-0.0763 0.281282,-0.50125 0.624839,-0.94447 0.840038,-1.08371 1.090942,-1.61985 1.184639,-2.52769 0.196122,-1.90024 -1.338364,-3.6432 -3.992466,-4.53415 -1.212469,-0.40703 -2.139128,-0.447 -3.526973,-0.15284 -2.172256,0.46043 -3.56753,1.73949 -3.770869,3.45636 -0.156581,1.3221 0.736966,2.47024 3.075881,3.95298 0.706505,0.44789 1.284521,0.86903 1.284521,0.9361 0,0.17237 -0.743312,0.62245 -3.533941,2.13839 -2.857637,1.55236 -2.897582,1.61376 -1.580913,2.42874 l 0.855728,0.5296 0.742838,-0.29175 c 1.151655,-0.45204 4.629039,-2.17682 5.578489,-2.76693 1.598822,-0.99371 1.47521,-0.96798 2.651269,-0.54587 1.691531,0.60712 3.710664,1.59523 3.647295,1.78532 -0.03157,0.0947 -2.211545,1.68072 -4.844477,3.52419 -2.632931,1.84348 -4.82087,3.43516 -4.861666,3.53719 -0.09141,0.2286 1.15915,1.59253 1.460125,1.59253 0.119893,0 2.517777,-1.51387 5.328553,-3.36391 3.988131,-2.62501 5.137786,-3.31991 5.236105,-3.16462 0.06929,0.10944 0.131204,1.28697 0.137047,2.61689 0.01658,3.76151 -0.09597,3.46168 2.140248,5.70253 1.792195,1.79588 2.293891,2.15099 2.445002,1.72957 0.09671,-0.26975 -0.142967,-0.64941 -1.117277,-1.76859 -0.846966,-0.97291 -0.893267,-1.06427 -0.968153,-1.92005 -0.04325,-0.49422 -0.117594,-4.13094 -0.165384,-8.08156 -0.08391,-6.93683 -0.12262,-7.61142 -0.512879,-8.92474 -0.11347,-0.38188 -0.129612,-0.64981 -0.04367,-0.72937 0.07472,-0.0692 1.912231,-0.16998 4.083521,-0.22392 4.521346,-0.11221 4.324097,-0.17043 3.878181,1.14144 -0.23573,0.69364 -0.248929,1.17239 -0.163526,5.98962 0.05104,2.87975 0.132845,6.44113 0.18211,7.91386 l 0.08967,2.67774 1.942808,1.99624 c 1.422394,1.46171 2.017037,1.98239 2.220152,1.94374 0.557166,-0.10632 0.376913,-0.59602 -0.69545,-1.88753 l -1.053633,-1.26873 -0.0892,-2.71398 c -0.04913,-1.49271 -0.15701,-5.24233 -0.239715,-8.33243 -0.111431,-4.16151 -0.203608,-5.78139 -0.355391,-6.24792 -0.385612,-1.1852 -0.352171,-1.23632 0.883136,-1.34074 0.598536,-0.0506 1.910886,-0.092 2.916069,-0.092 1.005203,0 1.827598,-0.0369 1.827598,-0.0823 0,-0.24702 -1.204122,-2.62305 -1.336552,-2.63733 -0.08645,-0.009 -1.1145,-0.0255 -2.284728,-0.0358 l -2.127706,-0.0186 -0.301967,-1.06664 c -0.408193,-1.44241 -1.138583,-3.22538 -1.589738,-3.88097 -0.593287,-0.86212 -2.11666,-2.20238 -3.024315,-2.66056 -0.858799,-0.43353 -1.83642,-0.65169 -2.890983,-0.649 z m -12.96692,10.51031 c 0.492356,-0.0158 0.985833,0.1146 1.443401,0.3958 0.495381,0.30446 1.18371,1.52512 1.18371,2.09937 0,0.5544 -0.534045,1.52022 -1.309607,2.36882 -0.390653,0.42743 -0.783914,0.77635 -0.873845,0.77582 -0.273084,-0.002 -2.586642,-1.78224 -2.914677,-2.24292 -0.555772,-0.78051 -0.314186,-1.74175 0.658752,-2.61967 0.54826,-0.49472 1.179236,-0.75686 1.812266,-0.77722 z"/>
  </g>
</svg>